<svg width="97" height="84" viewBox="0 0 97 84" fill="none" xmlns="http://www.w3.org/2000/svg">
<path d="M83.312 54.6382C90.4717 54.6382 96.2758 48.8148 96.2758 41.6311C96.2758 34.4475 90.4717 28.624 83.312 28.624C76.1523 28.624 70.3482 34.4475 70.3482 41.6311C70.3482 48.8148 76.1523 54.6382 83.312 54.6382Z" fill="#00DAFC"/>
<path d="M58.3643 32.8536C67.4062 32.8536 74.7361 25.4992 74.7361 16.427C74.7361 7.35491 67.4062 0.000488281 58.3643 0.000488281C49.3224 0.000488281 41.9925 7.35491 41.9925 16.427C41.9925 25.4992 49.3224 32.8536 58.3643 32.8536Z" fill="#05A5E1"/>
<path d="M58.3643 83.3375C67.4062 83.3375 74.7361 75.9831 74.7361 66.9109C74.7361 57.8388 67.4062 50.4844 58.3643 50.4844C49.3224 50.4844 41.9925 57.8388 41.9925 66.9109C41.9925 75.9831 49.3224 83.3375 58.3643 83.3375Z" fill="#05A5E1"/>
<path d="M40.952 31.6925C40.6177 31.6671 40.2835 31.6569 39.9569 31.6645C37.7085 31.7128 35.531 30.8592 33.9865 29.2181L33.8042 29.025C31.8621 26.9647 31.1684 24.0152 32.0065 21.3071C32.4875 19.7523 32.7458 18.0985 32.7433 16.3837C32.723 7.49721 25.5372 0.168013 16.6803 0.00288355C7.2436 -0.172408 -0.413135 7.66742 0.0173033 17.189C0.402166 25.6995 7.32209 32.5562 15.8068 32.8433C17.3614 32.8966 18.868 32.7315 20.3011 32.3758C23.0635 31.6925 25.9803 32.5003 27.935 34.5733L28.5199 35.1932C29.8922 36.6489 30.6569 38.572 30.6645 40.5739C30.6645 41.1023 30.6873 41.6561 30.7177 42.2074C30.8417 44.3718 30.072 46.4931 28.5883 48.0682L27.9375 48.7592C25.9828 50.8322 23.066 51.6401 20.3036 50.9567C18.8705 50.601 17.3614 50.4359 15.8093 50.4893C7.31956 50.7814 0.399634 57.6406 0.0173033 66.1511C-0.410603 75.6753 7.24613 83.5126 16.6829 83.3373C25.5398 83.1721 32.723 75.8429 32.7458 66.9539C32.7509 65.2391 32.4926 63.5853 32.009 62.0305C31.1709 59.3224 31.8647 56.3729 33.8067 54.3126L33.9662 54.1424C35.4879 52.5292 37.6148 51.5943 39.8278 51.6706C39.9442 51.6756 40.0607 51.6756 40.1772 51.6756C45.9248 51.6756 50.5355 46.798 50.1254 40.9448C49.781 36.0341 45.8438 32.0659 40.9545 31.6925H40.952Z" fill="white"/>
</svg>
