<svg width="88" height="76" viewBox="0 0 88 76" fill="none" xmlns="http://www.w3.org/2000/svg">
<path d="M75.7986 49.5447C82.3126 49.5447 87.5932 44.264 87.5932 37.7501C87.5932 31.2361 82.3126 25.9554 75.7986 25.9554C69.2846 25.9554 64.0039 31.2361 64.0039 37.7501C64.0039 44.264 69.2846 49.5447 75.7986 49.5447Z" fill="#4AC8EB"/>
<path d="M53.1008 29.791C61.3273 29.791 67.9961 23.1221 67.9961 14.8956C67.9961 6.66918 61.3273 0.000312805 53.1008 0.000312805C44.8743 0.000312805 38.2055 6.66918 38.2055 14.8956C38.2055 23.1221 44.8743 29.791 53.1008 29.791Z" fill="#1DA4DD"/>
<path d="M53.1008 75.5689C61.3273 75.5689 67.9961 68.9 67.9961 60.6736C67.9961 52.4471 61.3273 45.7782 53.1008 45.7782C44.8743 45.7782 38.2055 52.4471 38.2055 60.6736C38.2055 68.9 44.8743 75.5689 53.1008 75.5689Z" fill="#1DA4DD"/>
<path d="M37.2587 28.7382C36.9546 28.7152 36.6505 28.706 36.3534 28.7129C34.3077 28.7566 32.3266 27.9826 30.9214 26.4945L30.7555 26.3194C28.9886 24.4511 28.3574 21.7766 29.1199 19.3209C29.5576 17.9111 29.7926 16.4114 29.7903 14.8565C29.7719 6.79835 23.2341 0.152351 15.176 0.00261476C6.59033 -0.156336 -0.375876 6.9527 0.0157427 15.5867C0.365896 23.3039 6.66174 29.5215 14.3812 29.7818C15.7957 29.8301 17.1663 29.6804 18.4702 29.3579C20.9835 28.7382 23.6373 29.4708 25.4157 31.3505L25.9478 31.9126C27.1964 33.2326 27.8921 34.9765 27.899 36.7917C27.899 37.2709 27.9197 37.7731 27.9474 38.273C28.0602 40.2357 27.3599 42.1592 26.01 43.5875L25.418 44.2141C23.6396 46.0938 20.9858 46.8264 18.4725 46.2067C17.1686 45.8842 15.7957 45.7345 14.3835 45.7828C6.65944 46.0478 0.363592 52.2676 0.0157427 59.9848C-0.373572 68.6211 6.59263 75.7279 15.1783 75.5689C23.2364 75.4192 29.7719 68.7732 29.7926 60.7127C29.7972 59.1578 29.5622 57.6581 29.1222 56.2483C28.3597 53.7926 28.9909 51.1181 30.7578 49.2498L30.9029 49.0955C32.2874 47.6327 34.2225 46.7849 36.2359 46.854C36.3418 46.8586 36.4478 46.8586 36.5538 46.8586C41.783 46.8586 45.978 42.4357 45.6048 37.1281C45.2915 32.6751 41.7093 29.0768 37.261 28.7382H37.2587Z" fill="#2D2B80"/>
</svg>
