<svg width="258" height="43" viewBox="0 0 278 43" fill="none" xmlns="http://www.w3.org/2000/svg">
<path d="M8.42683 27.0423V41.5686H0.083931V0.319336H14.7998C24.272 0.319336 30.1716 4.68383 30.1716 13.5297C30.1716 22.3755 24.3328 27.0398 14.7998 27.0398H8.4243L8.42683 27.0423ZM13.6098 19.9875C19.3903 19.9875 21.8312 17.9551 21.8312 13.5322C21.8312 9.5869 19.3878 7.43514 13.6098 7.43514H8.42683V19.99H13.6098V19.9875Z" fill="white"/>
<path d="M49.7742 19.9871C48.9994 18.8515 47.9284 17.7159 46.0193 17.7159C43.1607 17.7159 41.2541 19.8092 41.2541 23.9933V41.5682H33.6277V11.6772H41.0743V14.1872C42.0871 12.6934 44.0519 11.1387 47.5688 11.1387C51.0858 11.1387 53.8254 12.6934 55.613 15.8004L49.7742 19.9845V19.9871Z" fill="white"/>
<path d="M81.7102 28.3587C81.7102 36.5491 77.8388 42.1076 68.8401 42.1076C59.8414 42.1076 55.97 36.727 55.97 28.3587V24.7716C55.97 15.8038 60.6769 11.1421 68.8401 11.1421C77.0032 11.1421 81.7102 15.8038 81.7102 24.7716V28.3587ZM74.1421 28.1199V25.0104C74.1421 20.2293 72.5925 17.5974 68.8401 17.5974C65.0877 17.5974 63.5381 20.2267 63.5381 25.0104V28.1199C63.5381 32.4234 64.6117 35.6524 68.8401 35.6524C73.0685 35.6524 74.1421 32.4234 74.1421 28.1199Z" fill="white"/>
<path d="M102.503 20.1073C101.191 18.5526 99.8823 17.7168 96.6641 17.7168C94.6968 17.7168 92.9117 18.3138 92.9117 20.0489C92.9117 21.784 94.5195 22.5004 97.6769 22.978C105.004 24.1136 108.699 26.9234 108.699 32.8426C108.699 38.7619 104.706 42.1076 97.0211 42.1076C90.9443 42.1076 87.2502 40.6139 84.6878 37.1461L90.5266 32.962C91.7191 34.5752 93.2079 35.533 96.9021 35.533C99.5227 35.533 101.133 34.6362 101.133 33.0814C101.133 31.2294 99.8215 30.6299 96.0691 30.0329C89.8733 29.0167 85.3436 26.3873 85.3436 20.3487C85.3436 14.6708 89.3948 11.1421 96.8439 11.1421C101.731 11.1421 105.782 12.2777 108.104 16.1036L102.503 20.1099V20.1073Z" fill="white"/>
<path d="M136.282 37.0267C134.196 40.6723 130.74 42.1076 125.379 42.1076C116.441 42.1076 112.152 36.3078 112.152 28.5975V24.5328C112.152 15.5066 116.679 11.1421 124.425 11.1421C132.826 11.1421 136.697 16.0452 136.697 25.1298V28.5366H119.718C119.776 32.6622 121.088 35.6498 125.319 35.6498C128.476 35.6498 129.489 34.6946 130.621 33.0789L136.28 37.0242L136.282 37.0267ZM119.72 23.0974H129.074C128.894 19.2131 127.347 17.5974 124.486 17.5974C121.447 17.5974 120.017 19.6907 119.718 23.0974H119.72Z" fill="white"/>
<path d="M166.013 41.5682H158.445V24.0518C158.445 19.2681 156.599 17.7159 153.917 17.7159C151.236 17.7159 149.21 19.7483 149.21 23.9933V41.5682H141.584V11.6772H149.031V14.1872C150.162 12.6325 152.307 11.1387 155.644 11.1387C159.219 11.1387 162.139 12.5131 163.985 15.145C165.891 12.8128 168.811 11.1387 172.566 11.1387C179.06 11.1387 182.873 15.084 182.873 22.8552V41.5656H175.247V24.0492C175.247 19.5653 173.697 17.7134 170.659 17.7134C167.917 17.7134 166.013 19.7457 166.013 23.9908V41.5656V41.5682Z" fill="white"/>
<path d="M195.564 13.5322C197.171 11.7996 199.435 11.1417 201.997 11.1417C209.148 11.1417 213.736 15.8034 213.736 24.7712V28.3583C213.736 36.5487 209.864 42.1072 201.997 42.1072C199.078 42.1072 196.992 41.3298 195.564 39.7751V41.5686H188.355V0.319336H195.564V13.5297V13.5322ZM206.168 28.1195V25.01C206.168 20.2288 204.618 17.5969 200.866 17.5969C197.113 17.5969 195.564 20.2263 195.564 25.01V28.1195C195.564 32.423 196.875 35.6519 200.866 35.6519C204.856 35.6519 206.168 32.423 206.168 28.1195Z" fill="white"/>
<path d="M218.141 0.319336H225.768V30.2687C225.768 33.4976 226.722 34.9914 229.938 34.9914V41.5686C221.894 41.5686 218.141 39.4753 218.141 32.0038V0.319336Z" fill="white"/>
<path d="M257.585 37.0267C255.498 40.6723 252.045 42.1076 246.682 42.1076C237.744 42.1076 233.455 36.3078 233.455 28.5975V24.5328C233.455 15.5066 237.982 11.1421 245.727 11.1421C254.128 11.1421 258 16.0452 258 25.1298V28.5366H241.02C241.079 32.6622 242.39 35.6498 246.621 35.6498C249.779 35.6498 250.791 34.6946 251.923 33.0789L257.582 37.0242L257.585 37.0267ZM241.02 23.0974H250.374C250.194 19.2131 248.647 17.5974 245.786 17.5974C242.747 17.5974 241.317 19.6907 241.02 23.0974Z" fill="white"/>
</svg>
