<svg width="234.66" height="37.89" viewBox="0 0 268 43" fill="none" xmlns="http://www.w3.org/2000/svg">
<path d="M7.93489 24.4026V37.5749H0.344398V0.170658H13.7332C22.3511 0.170658 27.7186 4.12831 27.7186 12.1496C27.7186 20.1709 22.4064 24.4003 13.7332 24.4003H7.93259L7.93489 24.4026ZM12.6504 18.0054C17.9096 18.0054 20.1304 16.1625 20.1304 12.1519C20.1304 8.57434 17.9073 6.62315 12.6504 6.62315H7.93489V18.0077H12.6504V18.0054Z" fill="#2D2B80"/>
<path d="M45.5533 18.0054C44.8484 16.9757 43.874 15.946 42.137 15.946C39.5362 15.946 37.8016 17.8442 37.8016 21.6383V37.5749H30.863V10.4702H37.638V12.7462C38.5595 11.3917 40.3471 9.98186 43.5468 9.98186C46.7466 9.98186 49.2391 11.3917 50.8655 14.209L45.5533 18.0031V18.0054Z" fill="#2D2B80"/>
<path d="M74.6091 25.5959C74.6091 33.0229 71.0869 38.0632 62.8997 38.0632C54.7126 38.0632 51.1903 33.1841 51.1903 25.5959V22.3432C51.1903 14.2113 55.4728 9.98416 62.8997 9.98416C70.3267 9.98416 74.6091 14.2113 74.6091 22.3432V25.5959ZM67.7235 25.3794V22.5597C67.7235 18.2243 66.3137 15.8377 62.8997 15.8377C59.4857 15.8377 58.0759 18.222 58.0759 22.5597V25.3794C58.0759 29.2817 59.0526 32.2097 62.8997 32.2097C66.7468 32.2097 67.7235 29.2817 67.7235 25.3794Z" fill="#2D2B80"/>
<path d="M93.5266 18.1137C92.3333 16.7039 91.1423 15.946 88.2144 15.946C86.4245 15.946 84.8004 16.4873 84.8004 18.0607C84.8004 19.6341 86.2632 20.2837 89.1359 20.7168C95.8026 21.7465 99.1636 24.2944 99.1636 29.6618C99.1636 35.0293 95.5308 38.0632 88.5392 38.0632C83.0105 38.0632 79.6495 36.7087 77.3182 33.5642L82.6304 29.7701C83.7154 31.2329 85.07 32.1014 88.431 32.1014C90.8152 32.1014 92.2803 31.2882 92.2803 29.8784C92.2803 28.199 91.087 27.6554 87.6731 27.114C82.036 26.1926 77.9148 23.8083 77.9148 18.3326C77.9148 13.1839 81.6007 9.98416 88.378 9.98416C92.824 9.98416 96.5098 11.0139 98.6223 14.4832L93.5266 18.116V18.1137Z" fill="#2D2B80"/>
<path d="M124.259 33.4559C122.361 36.7617 119.217 38.0632 114.34 38.0632C106.208 38.0632 102.306 32.804 102.306 25.8125V22.1266C102.306 13.9418 106.425 9.98416 113.472 9.98416C121.115 9.98416 124.637 14.4302 124.637 22.668V25.7572H109.189C109.242 29.4983 110.435 32.2074 114.285 32.2074C117.157 32.2074 118.079 31.3412 119.109 29.8761L124.257 33.4536L124.259 33.4559ZM109.191 20.8251H117.701C117.537 17.3028 116.13 15.8377 113.527 15.8377C110.762 15.8377 109.461 17.7359 109.189 20.8251H109.191Z" fill="#2D2B80"/>
<path d="M151.309 37.5749H144.423V21.6913C144.423 17.3535 142.744 15.946 140.304 15.946C137.865 15.946 136.022 17.7889 136.022 21.6383V37.5749H129.083V10.4702H135.858V12.7462C136.888 11.3364 138.839 9.98186 141.875 9.98186C145.128 9.98186 147.784 11.2281 149.464 13.6147C151.198 11.5 153.854 9.98186 157.271 9.98186C163.179 9.98186 166.649 13.5594 166.649 20.6062V37.5726H159.71V21.689C159.71 17.623 158.3 15.9437 155.536 15.9437C153.041 15.9437 151.309 17.7866 151.309 21.636V37.5726V37.5749Z" fill="#2D2B80"/>
<path d="M178.195 12.1519C179.657 10.5808 181.717 9.98416 184.048 9.98416C190.554 9.98416 194.728 14.2113 194.728 22.3432V25.5959C194.728 33.0229 191.206 38.0632 184.048 38.0632C181.392 38.0632 179.494 37.3583 178.195 35.9485V37.5749H171.636V0.170658H178.195V12.1496V12.1519ZM187.842 25.3794V22.5597C187.842 18.2243 186.432 15.8377 183.018 15.8377C179.604 15.8377 178.195 18.222 178.195 22.5597V25.3794C178.195 29.2817 179.388 32.2097 183.018 32.2097C186.649 32.2097 187.842 29.2817 187.842 25.3794Z" fill="#2D2B80"/>
<path d="M198.736 0.170658H205.675V27.3283C205.675 30.2562 206.543 31.6107 209.469 31.6107V37.5749C202.15 37.5749 198.736 35.6767 198.736 28.9016V0.170658Z" fill="#2D2B80"/>
<path d="M234.622 33.4559C232.724 36.7617 229.582 38.0632 224.703 38.0632C216.571 38.0632 212.669 32.804 212.669 25.8125V22.1266C212.669 13.9418 216.787 9.98416 223.834 9.98416C231.478 9.98416 235 14.4302 235 22.668V25.7572H219.552C219.605 29.4983 220.798 32.2074 224.647 32.2074C227.52 32.2074 228.442 31.3412 229.471 29.8761L234.62 33.4536L234.622 33.4559ZM219.552 20.8251H228.061C227.898 17.3028 226.49 15.8377 223.887 15.8377C221.123 15.8377 219.821 17.7359 219.552 20.8251Z" fill="#2D2B80"/>
</svg>