<?xml version="1.0" encoding="utf-8"?>
<!-- Generator: Adobe Illustrator 27.5.0, SVG Export Plug-In . SVG Version: 6.00 Build 0)  -->
<svg version="1.1" id="Layer_1" xmlns="http://www.w3.org/2000/svg" xmlns:xlink="http://www.w3.org/1999/xlink" x="0px" y="0px"
	 viewBox="0 0 22 16.8" style="enable-background:new 0 0 22 16.8;" xml:space="preserve">
<style type="text/css">
	.st0{clip-path:url(#SVGID_00000151526485393090654850000009013082125978898338_);}
	.st1{fill:none;}
	.st2{fill:#161615;}
</style>
<g id="Group_467" transform="translate(0 0)">
	<g>
		<defs>
			<rect id="SVGID_1_" width="22" height="16.8"/>
		</defs>
		<clipPath id="SVGID_00000081636834025884450220000000004390537792440763_">
			<use xlink:href="#SVGID_1_"  style="overflow:visible;"/>
		</clipPath>
		
			<g id="Group_462" transform="translate(0 0)" style="clip-path:url(#SVGID_00000081636834025884450220000000004390537792440763_);">
			<path id="Path_620" class="st1" d="M11,16.8c2.8,0,5.5,0,8.2,0c1.4,0.1,2.7-1,2.8-2.4c0-0.1,0-0.2,0-0.3c0-3.1,0-6.2,0-9.2
				c0.1-1.4-1-2.7-2.4-2.8c-0.1,0-0.2,0-0.3,0c-0.9,0-1.7,0-2.6,0c-0.5,0.1-1.1-0.2-1.2-0.8c-0.3-0.9-1.2-1.4-2.1-1.3
				c-1.5,0-3.1,0-4.6,0C8.1,0,7.5,0.2,7.1,0.6C6.8,1,6.6,1.3,6.4,1.7C6.3,2,6.1,2.1,5.8,2.1c-1,0-2,0-3,0C1.4,2,0.1,3.1,0,4.5
				c0,0.1,0,0.2,0,0.4c0,3.1,0,6.1,0,9.2c-0.1,1.4,1,2.7,2.4,2.8c0.1,0,0.2,0,0.3,0C5.5,16.8,8.2,16.8,11,16.8"/>
			<path id="Path_621" class="st2" d="M11,16.8c-2.7,0-5.5,0-8.2,0c-1.4,0.1-2.7-1-2.8-2.4c0-0.1,0-0.2,0-0.3C0,11,0,7.9,0,4.9
				c-0.1-1.4,1-2.7,2.4-2.8c0.1,0,0.2,0,0.4,0c1,0,2,0,3,0c0.3,0,0.5-0.1,0.6-0.4C6.6,1.3,6.8,1,7.1,0.6C7.5,0.2,8.1,0,8.7,0
				c1.5,0,3.1,0,4.6,0c0.9-0.1,1.8,0.5,2.1,1.3c0.1,0.5,0.7,0.9,1.2,0.8c0.9-0.1,1.7,0,2.6,0c1.4-0.1,2.7,1,2.8,2.4
				c0,0.1,0,0.2,0,0.3c0,3.1,0,6.2,0,9.2c0.1,1.4-1,2.7-2.5,2.7c-0.1,0-0.2,0-0.3,0C16.5,16.8,13.7,16.8,11,16.8 M11,15.5
				c2.7,0,5.5,0,8.2,0c0.7,0.1,1.3-0.4,1.4-1.1c0-0.1,0-0.2,0-0.3c0-3.1,0-6.1,0-9.2c0.1-0.7-0.4-1.3-1.1-1.4c-0.1,0-0.2,0-0.3,0
				c-1.2,0-2.4,0-3.6,0c-0.4,0.1-0.9-0.2-1-0.6c-0.1-0.3-0.3-0.6-0.4-0.9c-0.1-0.3-0.5-0.6-0.9-0.5c-1.5,0-3.1,0-4.6,0
				C8.3,1.4,8,1.6,7.8,1.9C7.7,2.2,7.5,2.5,7.4,2.9C7.2,3.3,6.9,3.5,6.4,3.5c-1.2,0-2.4,0-3.6,0C2.1,3.4,1.5,3.8,1.4,4.5
				c0,0.1,0,0.2,0,0.3c0,3,0,6.1,0,9.1c-0.1,0.7,0.4,1.4,1.1,1.5c0.1,0,0.3,0,0.4,0C5.6,15.5,8.3,15.5,11,15.5"/>
			<path id="Path_622" class="st2" d="M15.8,9.3c0,2.7-2.2,4.8-4.8,4.8c-2.7,0-4.8-2.2-4.8-4.8c0-2.6,2.2-4.8,4.8-4.8
				C13.7,4.5,15.8,6.6,15.8,9.3C15.8,9.3,15.8,9.3,15.8,9.3 M7.6,9.3c0,1.9,1.5,3.4,3.4,3.4c1.9,0,3.4-1.5,3.4-3.4
				c0-1.9-1.5-3.4-3.4-3.4C9.1,5.8,7.6,7.4,7.6,9.3"/>
		</g>
	</g>
</g>
</svg>
