<?xml version="1.0" encoding="UTF-8"?>
<svg id="Designs" xmlns="http://www.w3.org/2000/svg" viewBox="0 0 1080 245.37">
  <defs>
    <style>
      .cls-1 {
        fill: #000;
        stroke-width: 0px;
      }
    </style>
  </defs>
  <g>
    <g>
      <path class="cls-1" d="M178.51,196.34l-23.95-23.95c10.89-13.8,17.39-31.22,17.39-50.12s-6.52-36.35-17.42-50.16l23.95-23.95c3.8-3.8,3.8-9.95,0-13.75-3.8-3.8-9.95-3.8-13.75,0l-23.98,23.98c-13.76-10.77-31.08-17.2-49.87-17.2s-36.32,6.5-50.12,17.39l-24.15-24.15c-3.8-3.8-9.95-3.8-13.75,0-3.8,3.8-3.8,9.95,0,13.75l24.17,24.17c-10.79,13.77-17.23,31.1-17.23,49.91s6.45,36.16,17.24,49.93l-24.15,24.15c-3.8,3.8-3.8,9.95,0,13.75h0c3.8,3.8,9.95,3.8,13.75,0l24.14-24.14c13.8,10.88,31.2,17.37,50.1,17.37s36.14-6.44,49.91-17.23l23.97,23.97c3.8,3.8,9.95,3.8,13.75,0h0c3.8-3.8,3.8-9.95,0-13.75ZM90.87,183.86c-13.52,0-26.02-4.39-36.19-11.8l27.82-27.82-13.75-13.75-27.8,27.8c-7.34-10.14-11.68-22.58-11.68-36.02s4.34-25.87,11.66-36l27.78,27.78,13.75-13.75-27.81-27.81c10.17-7.42,22.69-11.81,36.21-11.81s25.83,4.32,35.96,11.63l-27.97,27.97,13.75,13.75,28.01-28.01c7.44,10.18,11.84,22.71,11.84,36.26s-4.39,26.04-11.81,36.21l-28.01-28.01-13.75,13.75,27.98,27.98c-10.13,7.33-22.57,11.66-36,11.66Z"/>
      <path class="cls-1" d="M97.45,115.29c-3.79-3.79-9.94-3.79-13.73,0-3.79,3.79-3.79,9.94,0,13.73,3.79,3.79,9.94,3.79,13.73,0,3.79-3.79,3.79-9.94,0-13.73Z"/>
    </g>
    <g>
      <path class="cls-1" d="M306.45,60.75c-33.82,0-61.24,27.42-61.24,61.24s27.42,61.24,61.24,61.24,61.24-27.42,61.24-61.24-27.42-61.24-61.24-61.24ZM306.45,164.42c-23.4,0-42.43-19.03-42.43-42.43s19.03-42.43,42.43-42.43,42.43,19.03,42.43,42.43-19.03,42.43-42.43,42.43Z"/>
      <path class="cls-1" d="M542.63,61.43c-4.84-1.88-10.29.53-12.17,5.38l-29.55,76.33h-3.17l-27.98-75.82c-.23-.69-.54-1.35-.93-1.97-.01-.02-.03-.04-.04-.06-.15-.24-.31-.47-.48-.69-.02-.03-.05-.06-.07-.09-.17-.21-.34-.42-.52-.62-.02-.03-.05-.05-.08-.08-.19-.2-.38-.38-.58-.56-.02-.02-.05-.04-.07-.06-.2-.18-.42-.35-.64-.51-.03-.02-.05-.04-.08-.06-.22-.15-.44-.3-.67-.43-.04-.02-.08-.04-.12-.07-.22-.12-.44-.24-.67-.35-.07-.03-.13-.06-.2-.08-.17-.07-.34-.15-.51-.22-.04-.02-.09-.03-.13-.04-.08-.03-.17-.05-.26-.08-.21-.07-.41-.13-.62-.18-.09-.02-.17-.03-.26-.05-.21-.05-.42-.09-.64-.12-.1-.01-.21-.02-.31-.03-.2-.02-.4-.05-.59-.06-.16,0-.33,0-.5,0-.14,0-.27,0-.41,0-.22.01-.44.04-.66.06-.08.01-.17.01-.25.03-.22.03-.44.08-.66.13-.08.02-.16.03-.23.05-.21.05-.42.12-.63.19-.08.03-.17.05-.25.08-.04.02-.09.02-.13.04-.18.06-.34.14-.51.22-.07.03-.14.06-.2.09-.23.11-.45.22-.66.34-.04.02-.09.05-.13.07-.23.13-.45.28-.66.43-.03.02-.06.04-.09.06-.22.16-.42.32-.62.5-.03.02-.06.05-.09.07-.2.18-.39.36-.57.55-.03.03-.06.06-.09.09-.18.19-.35.39-.51.6-.03.03-.06.07-.08.1-.17.22-.32.44-.47.67-.02.03-.04.05-.05.08-.38.62-.69,1.28-.92,1.97l-27.98,75.82h-3.17l-29.55-76.33c-1.88-4.84-7.32-7.25-12.17-5.38-4.84,1.87-7.25,7.32-5.38,12.17l39.91,103.1c.83,2.72,2.86,5.04,5.74,6.1,1.07.4,2.17.58,3.26.58,3.83,0,7.42-2.35,8.83-6.15l29.43-79.76,29.43,79.76c1.4,3.8,5,6.15,8.83,6.15,1.08,0,2.18-.19,3.26-.58,2.88-1.06,4.91-3.38,5.74-6.1l39.91-103.1c1.88-4.84-.53-10.29-5.38-12.17Z"/>
      <path class="cls-1" d="M647.14,76.85c3.64-3.71,3.59-9.66-.12-13.3-3.71-3.64-9.66-3.59-13.3.12l-52.39,53.33c-.22.22-.43.46-.62.7v-47.54c0-5.19-4.21-9.41-9.41-9.41s-9.41,4.21-9.41,9.41v103.64c0,5.19,4.21,9.41,9.41,9.41s9.41-4.21,9.41-9.41v-39.2h17.55l34.5,44.93c1.85,2.41,4.64,3.68,7.47,3.68,2,0,4.01-.63,5.72-1.95,4.12-3.16,4.9-9.07,1.73-13.19l-26.75-34.84-12.39-17.08,38.6-39.29Z"/>
      <path class="cls-1" d="M815.99,70.15c0-5.19-4.21-9.41-9.41-9.41s-9.41,4.21-9.41,9.41v72.98h-3.34l-63.98-78.91s-.02-.02-.02-.03c-.15-.18-.3-.34-.46-.51-.06-.06-.11-.13-.17-.19-.1-.1-.22-.2-.32-.29-.28-.25-.56-.48-.86-.7-.07-.05-.14-.11-.22-.16-.15-.1-.31-.19-.47-.29-.11-.06-.21-.13-.32-.19-.13-.07-.27-.13-.4-.19-.15-.07-.29-.14-.44-.21-.1-.04-.21-.07-.31-.11-.18-.07-.37-.14-.56-.2-.07-.02-.15-.04-.23-.06-.35-.1-.7-.17-1.06-.23-.16-.03-.33-.06-.49-.07-.07,0-.14,0-.21-.01-.24-.02-.49-.04-.73-.04,0,0-.02,0-.03,0-.08,0-.15,0-.23.01-.23,0-.45.01-.68.03-.11.01-.23.03-.34.05-.19.03-.38.05-.58.09-.13.02-.25.06-.38.09-.17.04-.35.08-.52.13-.13.04-.26.09-.39.13-.16.06-.32.11-.48.17-.14.06-.27.12-.4.18-.14.07-.29.13-.43.21-.15.08-.29.16-.43.25-.12.07-.24.14-.36.22-.17.11-.33.24-.49.36-.08.06-.16.11-.23.17,0,0-.02.02-.03.02-.17.14-.33.29-.49.44-.46.44-.88.91-1.23,1.42-.04.06-.09.11-.13.17-.11.16-.21.33-.3.5-.06.1-.12.19-.17.29-.07.14-.14.28-.2.42-.07.14-.14.27-.2.42-.04.11-.08.22-.12.33-.07.18-.14.36-.19.54-.02.07-.04.15-.06.22-.13.45-.22.91-.28,1.39,0,.06-.02.11-.03.17,0,.08,0,.17-.01.25-.02.23-.03.46-.03.69,0,.01,0,.02,0,.03v103.64c0,5.19,4.21,9.41,9.41,9.41s9.41-4.21,9.41-9.41v-72.94h3.37l63.95,78.86s.01.02.02.02c.21.26.44.51.67.74.08.08.17.15.25.23.16.15.32.29.49.42.11.09.23.17.35.26.15.11.3.22.46.32.12.08.24.15.37.22.17.1.33.19.51.27.12.06.24.12.36.17.19.09.39.16.6.24.1.04.2.08.31.11.23.08.47.14.71.2.08.02.16.04.24.06.27.06.54.1.82.14.05,0,.11.02.16.02.33.03.66.05,1,.05h0c.29,0,.59-.02.88-.04.09,0,.19-.02.28-.04.2-.02.39-.05.59-.09.11-.02.22-.04.33-.07.18-.04.35-.08.53-.14.11-.03.22-.06.32-.1.17-.06.35-.12.52-.19.1-.04.2-.07.29-.12.19-.08.37-.17.55-.26.08-.04.15-.07.23-.11.25-.14.5-.29.74-.45.02-.02.05-.04.07-.05.2-.14.4-.28.6-.44,0,0,.02-.02.03-.02.17-.14.33-.29.49-.44.46-.44.88-.91,1.23-1.42.04-.06.09-.11.13-.17.11-.16.21-.33.3-.5.06-.1.12-.19.17-.29.07-.14.14-.28.2-.42.07-.14.14-.27.2-.42.04-.11.08-.22.12-.33.07-.18.14-.36.19-.54.02-.07.04-.15.06-.22.13-.45.22-.91.28-1.39,0-.06.02-.11.03-.17,0-.08,0-.17.01-.25.02-.23.03-.46.03-.69,0-.01,0-.02,0-.03v-103.64Z"/>
      <path class="cls-1" d="M677.71,60.75c-5.19,0-9.41,4.21-9.41,9.41v103.64c0,5.19,4.21,9.41,9.41,9.41s9.41-4.21,9.41-9.41v-103.64c0-5.19-4.21-9.41-9.41-9.41Z"/>
    </g>
  </g>
  <g>
    <path class="cls-1" d="M939.85,29.86h0c0,.16,0,.32,0,.48v-.48Z"/>
    <path class="cls-1" d="M1075.46,197.63h0s-.11-.17-.11-.17l-.11-.17-.05-.08-26.16-40.96s-.05-.08-.07-.12c0,0,0,0,0,0-.02-.04-.05-.07-.07-.11-.07-.11-.15-.23-.23-.34-.07-.11-.15-.22-.23-.33-.14-.21-.28-.41-.42-.61-.03-.04-.06-.08-.08-.11-.02-.02-.03-.04-.05-.07-.18-.25-.37-.51-.56-.76-.09-.11-.17-.23-.26-.34-.03-.03-.05-.07-.08-.1-.11-.14-.22-.29-.33-.42-.07-.08-.13-.16-.2-.24-.02-.03-.04-.05-.07-.08-.11-.13-.21-.26-.32-.39-.07-.08-.14-.16-.21-.24-.16-.18-.31-.36-.47-.54-.05-.06-.11-.12-.16-.18-.11-.13-.23-.25-.35-.38-.3-.33-.61-.65-.93-.96,0,0,0,0-.01-.01-.14-.14-.28-.27-.42-.41-.05-.05-.1-.09-.15-.14-.21-.2-.42-.4-.63-.59-.12-.11-.25-.23-.38-.34-.22-.19-.44-.39-.67-.58-.08-.07-.15-.13-.23-.2-.05-.05-.11-.09-.17-.14-.04-.03-.08-.07-.12-.1-.03-.02-.05-.04-.08-.07-.12-.1-.23-.19-.35-.28-.13-.1-.26-.21-.4-.31-.01,0-.02-.02-.03-.03-.35-.27-.7-.53-1.06-.78-.1-.07-.2-.14-.3-.21-.26-.18-.52-.36-.78-.53-.03-.02-.06-.04-.09-.06-.11-.08-.23-.15-.35-.22-.13-.08-.26-.16-.39-.24-.01,0-.03-.02-.04-.03-.07-.04-.14-.09-.21-.13-.07-.04-.13-.08-.2-.12-.23-.14-.47-.28-.71-.42-.01,0-.02-.01-.04-.02-.25-.15-.51-.29-.77-.43-.08-.04-.16-.09-.24-.13-.04-.02-.09-.05-.13-.07-.04-.02-.07-.04-.11-.06-.13-.07-.26-.13-.38-.2-.18-.1-.37-.19-.56-.28-.18-.09-.37-.18-.56-.26-.11-.05-.22-.1-.33-.15-.13-.06-.26-.12-.38-.17-.33-.15-.67-.29-1-.42-.19-.08-.39-.15-.58-.23-.14-.06-.28-.11-.42-.16-.03-.01-.07-.02-.1-.04-.04-.02-.09-.03-.13-.05-.05-.02-.11-.04-.16-.06-.07-.03-.15-.05-.22-.08-.16-.05-.31-.11-.47-.16-.05-.02-.1-.03-.15-.05-.06-.02-.12-.04-.19-.06-.05-.02-.11-.04-.16-.05-.11-.04-.23-.07-.34-.1-.29-.09-.58-.18-.88-.26-.02,0-.04-.01-.06-.02-.15-.04-.3-.09-.46-.13-.13-.03-.25-.07-.38-.1-.05-.01-.1-.02-.14-.04-.09-.02-.19-.05-.28-.07-.11-.02-.22-.05-.33-.08-.11-.03-.22-.05-.33-.07-.13-.03-.27-.06-.4-.09-.07-.02-.15-.03-.22-.05-.23-.05-.45-.09-.68-.13-.09-.02-.19-.04-.28-.05-.17-.03-.34-.06-.51-.09-.13-.02-.26-.04-.39-.06-.16-.02-.32-.05-.49-.07-.09-.01-.19-.03-.28-.04-.17-.02-.33-.04-.5-.06-.05,0-.1-.01-.15-.02-.09-.01-.18-.02-.27-.03-.01,0-.02,0-.04,0-.12-.02-.24-.02-.36-.04-.16-.02-.33-.03-.49-.04-.05,0-.09,0-.14,0-.08,0-.16-.01-.25-.02-.03,0-.06,0-.09,0-.15-.01-.3-.02-.46-.03-.1,0-.21,0-.32-.01-.2,0-.4-.02-.6-.02-.08,0-.17,0-.25,0-.26,0-.53,0-.8,0h-27.07c-.51-1.97-.79-4.03-.78-6.16,0-6.77,2.76-12.89,7.2-17.31l67.13-63.08c5.97-5.54,9.7-13.45,9.7-22.24C1074.11,13.58,1060.53,0,1043.77,0c-8.11,0-15.47,3.18-20.91,8.36l-.07.07-82.98,77.96V30.32c-.01-.16-.01-.32-.02-.48C939.53,13.31,926.04,0,909.44,0c-16.59,0-30.07,13.34-30.31,29.88,0,.16,0,.32,0,.48l.03,54.96c.51,13.64,8.32,25.41,19.64,31.53.02,0,.04.02.06.03,1.86,1,3.81,1.85,5.84,2.53,3.74,1.25,7.74,1.93,11.9,1.93,1.19,0,2.37-.06,3.53-.17,0,0,.02,0,.03,0l.05,17.96h-11.66v.02c-16.14.51-29.1,13.63-29.35,29.84,0,.16,0,.32,0,.48l.05,44.15c0,16.75,13.6,30.33,30.35,30.32,16.76,0,30.33-13.6,30.32-30.35l-.02-54.78h38.79l45.26,70.85.35.55.06.09c5.43,8.22,14.74,13.64,25.33,13.64,16.75,0,30.34-13.58,30.34-30.34,0-5.86-1.66-11.33-4.54-15.97ZM920.1,101.24c-1.15.23-2.34.36-3.56.36-9.31,0-16.96-7.17-17.7-16.3v-1.52l-.02-32.86v-20.57c-.02-5.89,4.75-10.66,10.64-10.67,5.89,0,10.66,4.77,10.67,10.65v16.24s0,0,0,0v54.65s-.02,0-.03,0ZM920.22,213.59c0,5.89-4.77,10.66-10.65,10.67-5.88,0-10.66-4.77-10.66-10.65l-.04-35.36h0v-8.78c0-5.89,4.77-10.66,10.66-10.66h10.69l.02,54.79ZM939.87,139.12v-25.91s26.9-25.14,26.9-25.14l-.05-.05,49.05-46,20.56-19.33c1.92-1.87,4.54-3.02,7.44-3.02,5.88,0,10.66,4.77,10.66,10.66,0,3.13-1.35,5.95-3.5,7.9l-20.56,19.32-45.45,42.71s-.06.05-.08.08l-.83.78c-4.13,3.98-7.5,8.75-9.84,14.07-2.4,5.45-3.73,11.47-3.73,17.81,0,2.07.15,4.12.42,6.12h-30.99ZM1049.66,224.25c-3.68,0-6.92-1.86-8.84-4.7l-.03-.04-.25-.39h0s-6.46-10.12-6.46-10.12l-8.69-13.6-1.86-2.91-.09-.14h0s-9.67-15.14-9.67-15.14l-11.75-18.4h15.8c6.13,0,11.51,3.18,14.59,7.99l10.94,17.13,6.54,10.24,8.72,13.65.05.08c1.04,1.65,1.65,3.6,1.65,5.7,0,5.88-4.77,10.66-10.66,10.66Z"/>
  </g>
</svg>