<?xml version="1.0" encoding="UTF-8"?>
<svg id="Idents" xmlns="http://www.w3.org/2000/svg" viewBox="0 0 476.45 212.71">
  <defs>
    <style>
      .cls-1 {
        fill: #1d1d1b;
      }
    </style>
  </defs>
  <g>
    <g>
      <path d="M39.06,75.01h0c0,.1,0,.2,0,.31v-.31Z"/>
      <path d="M126.29,182.93h0s-.07-.11-.07-.11l-.07-.11-.03-.05-16.83-26.35s-.03-.05-.05-.08c0,0,0,0,0,0-.01-.02-.03-.05-.04-.07-.05-.07-.1-.15-.15-.22-.05-.07-.1-.14-.15-.21-.09-.13-.18-.26-.27-.39-.02-.02-.04-.05-.05-.07-.01-.01-.02-.03-.03-.04-.12-.16-.24-.33-.36-.49-.06-.07-.11-.15-.17-.22-.02-.02-.03-.04-.05-.07-.07-.09-.14-.18-.21-.27-.04-.05-.08-.1-.13-.15-.01-.02-.03-.03-.04-.05-.07-.08-.14-.17-.21-.25-.04-.05-.09-.1-.14-.16-.1-.12-.2-.23-.3-.35-.03-.04-.07-.08-.1-.12-.07-.08-.15-.16-.22-.24-.2-.21-.39-.42-.6-.62,0,0,0,0,0,0-.09-.09-.18-.18-.27-.26-.03-.03-.07-.06-.1-.09-.13-.13-.27-.26-.41-.38-.08-.07-.16-.15-.24-.22-.14-.13-.28-.25-.43-.37-.05-.04-.1-.09-.15-.13-.04-.03-.07-.06-.11-.09-.03-.02-.05-.04-.08-.06-.02-.01-.03-.03-.05-.04-.08-.06-.15-.12-.22-.18-.09-.07-.17-.13-.26-.2,0,0-.01-.01-.02-.02-.22-.17-.45-.34-.68-.5-.06-.05-.13-.09-.19-.13-.17-.12-.33-.23-.5-.34-.02-.01-.04-.03-.06-.04-.07-.05-.15-.1-.22-.14-.08-.05-.17-.1-.25-.16,0,0-.02-.01-.03-.02-.05-.03-.09-.06-.14-.08-.04-.03-.09-.05-.13-.08-.15-.09-.3-.18-.45-.27,0,0-.02,0-.02-.01-.16-.09-.33-.19-.5-.28-.05-.03-.1-.05-.16-.08-.03-.01-.05-.03-.08-.04-.02-.01-.05-.02-.07-.04-.08-.04-.16-.09-.25-.13-.12-.06-.24-.12-.36-.18-.12-.06-.24-.11-.36-.17-.07-.03-.14-.06-.21-.1-.08-.04-.16-.07-.25-.11-.21-.09-.43-.19-.64-.27-.12-.05-.25-.1-.37-.15-.09-.04-.18-.07-.27-.1-.02,0-.04-.02-.07-.02-.03-.01-.06-.02-.09-.03-.03-.01-.07-.03-.1-.04-.05-.02-.09-.03-.14-.05-.1-.03-.2-.07-.3-.1-.03-.01-.06-.02-.1-.03-.04-.01-.08-.03-.12-.04-.03-.01-.07-.02-.1-.03-.07-.02-.15-.04-.22-.07-.19-.06-.37-.11-.56-.17-.01,0-.03,0-.04-.01-.1-.03-.19-.06-.29-.08-.08-.02-.16-.04-.24-.06-.03,0-.06-.02-.09-.02-.06-.02-.12-.03-.18-.05-.07-.02-.14-.03-.21-.05-.07-.02-.14-.03-.21-.05-.09-.02-.17-.04-.26-.06-.05-.01-.1-.02-.14-.03-.15-.03-.29-.06-.44-.08-.06-.01-.12-.02-.18-.03-.11-.02-.22-.04-.33-.06-.08-.01-.17-.02-.25-.04-.1-.02-.21-.03-.31-.04-.06,0-.12-.02-.18-.03-.11-.01-.21-.03-.32-.04-.03,0-.07,0-.1-.01-.06,0-.12-.01-.18-.02,0,0-.02,0-.02,0-.08,0-.15-.02-.23-.02-.1,0-.21-.02-.32-.03-.03,0-.06,0-.09,0-.05,0-.11,0-.16-.01-.02,0-.04,0-.06,0-.1,0-.2-.01-.29-.02-.07,0-.14,0-.2,0-.13,0-.26-.01-.39-.01-.05,0-2.72-.01-2.72-.01h-15.37c-.33-1.27-.51-2.59-.5-3.96,0-4.35,1.77-8.29,4.63-11.13l43.18-40.58c3.84-3.56,6.24-8.65,6.24-14.3,0-10.78-8.74-19.52-19.51-19.52-5.21,0-9.95,2.05-13.45,5.38l-.05.04-53.37,50.15v-36.06c0-.1,0-.2-.01-.31-.17-10.64-8.85-19.2-19.52-19.2C8.83,55.81.16,64.39,0,75.02c0,.1,0,.2,0,.31l.02,35.35c.33,8.77,5.35,16.35,12.63,20.28.01,0,.03.01.04.02,1.2.65,2.45,1.19,3.76,1.63,2.4.81,4.98,1.24,7.65,1.24.76,0,1.52-.04,2.27-.11,0,0,.01,0,.02,0l.03,11.55h-7.5c-10.38.34-18.72,8.78-18.88,19.21,0,.1,0,.2,0,.31l.03,28.4c0,10.78,8.75,19.51,19.52,19.5,10.78,0,19.51-8.75,19.5-19.52v-35.23s24.94,0,24.94,0l29.11,45.57.23.35.04.06c3.49,5.29,9.48,8.77,16.29,8.77,10.78,0,19.51-8.74,19.51-19.51,0-3.77-1.07-7.29-2.92-10.27ZM26.36,120.93c-.74.15-1.51.23-2.29.23-5.99,0-10.91-4.61-11.39-10.48v-22.12s-.02-13.23-.02-13.23c0-3.79,3.07-6.86,6.85-6.86,3.79,0,6.86,3.07,6.86,6.85v10.45s0,0,0,0v35.16s-.01,0-.02,0ZM26.43,193.2c0,3.79-3.07,6.86-6.85,6.86-3.79,0-6.86-3.07-6.86-6.85l-.03-22.75h0v-5.65c0-3.79,3.07-6.86,6.85-6.86h6.87v35.24ZM39.07,145.3v-16.66s17.3-16.17,17.3-16.17l-.03-.03,31.55-29.59,13.23-12.43c1.23-1.2,2.92-1.94,4.78-1.94,3.79,0,6.86,3.07,6.86,6.86,0,2.01-.87,3.83-2.25,5.08l-13.23,12.43-29.24,27.47s-.04.03-.05.05l-.54.5c-2.66,2.56-4.82,5.63-6.33,9.05-1.54,3.5-2.4,7.38-2.4,11.45,0,1.33.09,2.65.27,3.94h-19.93ZM109.7,200.06c-2.37,0-4.45-1.2-5.69-3.02l-.02-.03-.16-.25h0s-4.15-6.51-4.15-6.51l-5.59-8.75-1.2-1.87-.06-.09h0s-6.22-9.74-6.22-9.74l-7.56-11.84h10.16c3.94,0,7.41,2.05,9.39,5.14l7.04,11.02,4.21,6.59,5.61,8.78.03.05c.67,1.06,1.06,2.32,1.06,3.66,0,3.79-3.07,6.86-6.86,6.86Z"/>
    </g>
    <g>
      <path d="M176.11,174.29c-3.36,0-5.68-2.55-5.68-5.68v-66.81c0-3.36,2.2-5.68,5.68-5.68h29.46c17.63,0,26.33,9.63,26.33,22.97s-8.7,22.62-26.33,22.62h-24.01v26.91c0,3.13-2.2,5.68-5.45,5.68ZM181.56,106.31v25.17h26.22c8.58,0,12.99-5.57,12.99-12.41s-4.41-12.76-12.99-12.76h-26.22Z"/>
      <path d="M246.95,174.29c-3.36,0-5.68-2.55-5.68-5.68v-66.81c0-3.36,2.2-5.68,5.68-5.68h31.2c17.63,0,26.33,9.4,26.33,22.74,0,10.32-5.45,17.98-15.89,20.88l12.99,26.56c.35.81.58,1.62.58,2.44,0,2.78-1.97,5.57-5.45,5.57-2.67,0-4.06-1.16-4.99-3.13l-14.73-30.16h-24.59v27.61c0,3.13-2.2,5.68-5.45,5.68ZM252.4,106.31v24.94h27.96c8.58,0,12.99-5.57,12.99-12.41s-4.41-12.53-12.99-12.53h-27.96Z"/>
      <path d="M352.3,174.75c-23.55,0-39.21-18.21-39.21-40.02s15.66-40.02,39.21-40.02,39.21,18.21,39.21,40.02-15.66,40.02-39.21,40.02ZM352.3,104.81c-17.98,0-28.07,14.04-28.07,29.93s10.09,29.93,28.07,29.93,28.07-14.04,28.07-29.93-10.09-29.93-28.07-29.93Z"/>
    </g>
  </g>
  <g>
    <path class="cls-1" d="M467,0h-123.67C338.11,0,333.88,4.23,333.88,9.45v37.27c0,5.22,4.23,9.45,9.45,9.45h123.67c5.22,0,9.45-4.23,9.45-9.45V9.45C476.45,4.23,472.22,0,467,0ZM375.61,17.52h-13.95v8.24h12.62v4.61h-12.62v12.9h-5.5V12.91h19.45v4.61ZM397.57,43.27l-5.97-11.12h-5.6v11.12h-5.5V12.91h11.39c2.33,0,4.29.41,5.88,1.22,1.59.81,2.79,1.94,3.6,3.4s1.22,3.16,1.22,5.09-.41,3.64-1.24,5.06-2.04,2.53-3.64,3.31c-.19.09-.4.16-.59.24l6.58,12.05h-6.14ZM428.31,43.27h-19.87V12.91h19.75v4.61h-14.25v8.24h13.22v4.61h-13.22v8.29h14.37v4.61ZM454.17,43.27h-19.87V12.91h19.75v4.61h-14.25v8.24h13.22v4.61h-13.22v8.29h14.37v4.61Z"/>
    <path class="cls-1" d="M394.43,27.01c.87-.38,1.51-.94,1.94-1.68.42-.74.63-1.64.63-2.72s-.21-2-.64-2.76-1.07-1.35-1.94-1.75c-.87-.4-1.99-.6-3.37-.6h-5.04v10.08h5.07c1.36,0,2.48-.19,3.35-.57Z"/>
  </g>
</svg>