<?xml version="1.0" encoding="UTF-8"?>
<svg xmlns="http://www.w3.org/2000/svg" viewBox="0 0 140.138 25.159"><path fill="currentColor" stroke="rgba(0,0,0,0)" stroke-miterlimit="10" d="M133.467 24.579v-8.086a.236.236 0 0 0-.235-.236h-6.022a.234.234 0 0 0-.236.236v8.086h-6.171V6.804h6.171v5.346a.234.234 0 0 0 .236.236h6.022a.236.236 0 0 0 .235-.236V6.804h6.171v12.342a5.433 5.433 0 0 1-5.434 5.434Zm-53.888 0v-5.434h9.19l6.171 5.434Zm-16.492 0a5.431 5.431 0 0 1-5.431-5.413v-.02h17.459v5.433Zm-17.843 0a5.434 5.434 0 0 1-5.434-5.413v-.017h15.207v5.43Zm-16.8 0v-24h6.175v24Zm-22.512 0a5.432 5.432 0 0 1-5.434-5.424v-.01h15.6l6.171 5.434Zm99.231 0-.018-17.772h6.178v17.772Zm-15.8-5.955V14.85a.239.239 0 0 0-.067-.165.239.239 0 0 0-.165-.071h-9.555v-13.5l6.171 5.434v3.966a.235.235 0 0 0 .235.232h9.551v13.315Zm-72.67 0v-2.71l6.171-3.875v12.019Zm40.934-.263c-.007-1 .017-3.478.023-11.554h6.332v3.7a.237.237 0 0 0 .236.236h6.13v3.872h-6.13a.234.234 0 0 0-.236.232v3.511Zm-17.819 0V.579h6.171v17.779Zm-39.311 0V6.807h6.171v11.554Zm11.321-6.787h10.306l-5.757 3.612Zm121.646-5.558h-12.666V.579h13.405a5.434 5.434 0 0 1 5.431 5.417v.017Zm-22.142 0h-7.914A5.433 5.433 0 0 1 97.974.582h19.1v5.434Zm-24.979 0L80.172.582h15.386v5.434Zm-22.36 0h-6.332V.579H75.11v5.434Zm-57.314 0H.5A5.436 5.436 0 0 1 5.934.582h16.934v5.434Z" data-name="logo"></path></svg>