<svg width="98.3" height="62.002" viewBox="0 0 98.3 62.002" xmlns="http://www.w3.org/2000/svg"><g id="svgGroup" stroke-linecap="round" fill-rule="evenodd" font-size="9pt" stroke="#ec5a29" stroke-width="0.25mm" fill="#ec5a29" style="stroke:#ec5a29;stroke-width:0.25mm;fill:#ec5a29"><path d="M 10.3 61.301 L 0 61.301 L 18.6 9.101 Q 20.1 4.901 23.65 2.451 Q 27.2 0.001 31.7 0.001 Q 34.8 0.001 37.6 1.051 Q 40.4 2.101 42.45 3.951 Q 44.5 5.801 45.7 8.451 Q 46.9 11.101 46.9 14.401 L 46.9 46.401 Q 46.9 49.601 48.35 51.301 Q 49.8 53.001 52.6 53.001 Q 54.4 53.001 55.55 51.651 Q 56.7 50.301 57.5 47.801 L 70 9.101 Q 71.4 4.901 75 2.451 Q 78.6 0.001 83.1 0.001 Q 86.2 0.001 89 1.051 Q 91.8 2.101 93.85 3.951 Q 95.9 5.801 97.1 8.451 Q 98.3 11.101 98.3 14.401 L 98.3 61.301 L 88.6 61.301 L 88.6 15.601 Q 88.6 12.501 87.15 10.801 Q 85.7 9.101 82.9 9.101 Q 81 9.101 79.9 10.451 Q 78.8 11.801 78 14.201 L 65.5 52.901 Q 64.1 57.201 60.5 59.601 Q 56.9 62.001 52.4 62.001 Q 49.2 62.001 46.45 61.001 Q 43.7 60.001 41.65 58.101 Q 39.6 56.201 38.4 53.551 Q 37.2 50.901 37.2 47.601 L 37.2 15.601 Q 37.2 12.501 35.75 10.801 Q 34.3 9.101 31.5 9.101 Q 27.5 9.101 26.6 14.201 L 10.3 61.301 Z" vector-effect="non-scaling-stroke"/></g></svg>