<?xml version="1.0" encoding="UTF-8"?> <svg xmlns="http://www.w3.org/2000/svg" width="176" height="29" viewBox="0 0 176 29" fill="none"><path d="M13.88 6.24L5.8 28H0.76L9.12 5.52C10.16 2.44 11.88 0.519999 15.48 0.519999C19.48 0.519999 21.48 2.88 21.48 6.4V22.36C21.48 23.28 22.04 23.88 22.84 23.88C23.56 23.88 24.12 23.44 24.36 22.76L30.92 5.52C31.96 2.44 33.68 0.519999 37.28 0.519999C41.28 0.519999 43.28 2.88 43.28 6.4V28H38.52V6.64C38.52 5.68 37.96 5.08 37.16 5.08C36.48 5.08 35.92 5.56 35.68 6.24L29.12 23.48C28.08 26.56 26.32 28.48 22.72 28.48C18.76 28.48 16.76 26.12 16.76 22.56V6.64C16.76 5.68 16.16 5.08 15.36 5.08C14.64 5.08 14.16 5.56 13.88 6.24ZM57.7234 6.88H62.1634C67.7634 6.88 71.3234 10.32 71.3234 17.44C71.3234 24.56 67.7634 28 62.1634 28H57.7234C52.0834 28 48.5634 24.56 48.5634 17.44C48.5634 10.32 52.0834 6.88 57.7234 6.88ZM61.7634 10.96H58.1234C54.4434 10.96 52.8434 12.88 52.8434 17.44C52.8434 22 54.4434 23.88 58.1234 23.88H61.7634C65.4034 23.88 67.0434 22 67.0434 17.44C67.0434 12.88 65.4034 10.96 61.7634 10.96ZM74.2794 6.88H77.1594V1.88H81.4394V6.88H87.2794V10.96H81.4394V20.96C81.4394 23.32 82.2794 24.12 84.2794 24.12H87.1994V28H83.3994C79.0394 28 77.1594 26.24 77.1594 20.72V10.96H74.2794V6.88ZM98.3194 6.88H105.159C110.159 6.88 112.279 9.28 112.279 13.36C112.279 17.24 110.319 19.44 105.119 19.44H95.0794V20.96C95.0794 22.64 95.9994 23.88 98.3194 23.88H111.239V28H98.3194C93.0394 28 90.9594 25.04 90.9594 21.04V13.84C90.9594 9.84 93.0394 6.88 98.3194 6.88ZM95.0794 13.88V16.12H104.999C107.279 16.12 108.119 15.16 108.119 13.6C108.119 12 107.199 10.96 105.119 10.96H98.3194C95.9994 10.96 95.0794 12.24 95.0794 13.88ZM123.173 6.88H131.853V10.96H124.413C122.533 10.96 121.693 11.84 121.693 13.68V28H117.453V13.04C117.453 8.8 119.013 6.88 123.173 6.88ZM141.689 6.88H150.369V10.96H142.929C141.049 10.96 140.209 11.84 140.209 13.68V28H135.969V13.04C135.969 8.8 137.529 6.88 141.689 6.88ZM155.364 6.88H168.044C173.324 6.88 175.404 9.84 175.404 13.84V23.76C175.404 26.8 174.604 28 171.044 28H161.164C156.164 28 154.084 25.56 154.084 21.56C154.084 17.72 156.004 15.48 161.204 15.48H171.244V13.88C171.244 12.24 170.324 10.96 168.004 10.96H155.364V6.88ZM170.084 23.88C170.924 23.88 171.244 23.56 171.244 22.8V18.84H161.284C159.044 18.84 158.244 19.76 158.244 21.32C158.244 22.88 159.084 23.88 161.204 23.88H170.084Z" fill="#FF4C00"></path></svg>