<?xml version="1.0" encoding="utf-8"?>
<!-- Generator: Adobe Illustrator 27.4.1, SVG Export Plug-In . SVG Version: 6.00 Build 0)  -->
<svg version="1.1" id="HuggingFace" xmlns="http://www.w3.org/2000/svg" xmlns:xlink="http://www.w3.org/1999/xlink" x="0px"
	 y="0px" viewBox="0 0 206.3 206.3" style="enable-background:new 0 0 206.3 206.3;" xml:space="preserve">
<style type="text/css">
	.st0{fill:#FFFFFF;}
</style>
<path class="st0" d="M103.2,0C46.2,0,0,46.2,0,103.2s46.2,103.2,103.2,103.2s103.2-46.2,103.2-103.2S160.1,0,103.2,0z M102.4,175.7
	c-25.7,0-46.6-22.7-46.6-50.7v0c0-1.7,2-2.6,3.4-1.6c11,7.5,25.2,12,40.7,12c17.8,0,34-6,45.4-15.6c1.3-1.1,3.4-0.2,3.5,1.5
	c0.1,1.2,0.1,2.5,0.1,3.7C149,153,128.1,175.7,102.4,175.7L102.4,175.7z M142.2,108.7l-7.8-14l-15,4.4c-2.4-3.6-3.8-7.9-3.8-12.6
	c0-12.4,10.1-22.5,22.5-22.5c12.4,0,22.5,10.1,22.5,22.5C160.7,97.6,152.7,106.8,142.2,108.7L142.2,108.7z M178.3,120.3
	c-6.6,0-12-5.4-12-12c0-6.6,5.4-12,12-12c6.6,0,12,5.4,12,12C190.2,115,184.9,120.3,178.3,120.3z M65.6,108.7
	c-10.5-1.9-18.5-11.1-18.5-22.1C47.2,74.1,57.2,64,69.7,64c12.4,0,22.5,10.1,22.5,22.5c0,4.6-1.4,9-3.8,12.6l-15-4.4L65.6,108.7
	L65.6,108.7z M17.6,108.4c0-6.6,5.4-12,12-12s12,5.4,12,12c0,6.6-5.4,12-12,12S17.6,115,17.6,108.4z"/>
</svg>
