<?xml version="1.0" encoding="utf-8"?>
<!-- Generator: Adobe Illustrator 27.5.0, SVG Export Plug-In . SVG Version: 6.00 Build 0)  -->
<svg version="1.1" id="Layer_1" xmlns="http://www.w3.org/2000/svg" xmlns:xlink="http://www.w3.org/1999/xlink" x="0px" y="0px"
	 viewBox="0 0 256 256" style="enable-background:new 0 0 256 256;" xml:space="preserve">
<style type="text/css">
	.st0{fill:#FFFFFF;}
</style>
<g transform="translate(1.4065934065934016 1.4065934065934016) scale(2.81 2.81)">
	<path class="st0" d="M45,0C20.1,0,0,20.1,0,45s20.1,45,45,45s45-20.1,45-45S69.9,0,45,0z M70,33.4c-0.2,4.9-3.6,11.5-10.2,20
		C53,62.2,47.2,66.6,42.5,66.6c-2.9,0-5.4-2.7-7.4-8.1c-1.3-4.9-2.7-9.9-4-14.8c-1.5-5.4-3.1-8.1-4.8-8.1c-0.4,0-1.7,0.8-3.9,2.4
		L20,35c2.5-2.2,4.9-4.3,7.3-6.5c3.3-2.8,5.8-4.3,7.4-4.5c3.9-0.4,6.3,2.3,7.2,8c1,6.1,1.6,10,2,11.5c1.1,5.1,2.4,7.6,3.7,7.6
		c1,0,2.6-1.7,4.7-5c2.1-3.3,3.2-5.8,3.4-7.5c0.3-2.9-0.8-4.3-3.4-4.3c-1.2,0-2.4,0.3-3.7,0.8c2.5-8,7.2-12,14.1-11.7
		C67.8,23.5,70.3,26.9,70,33.4z"/>
</g>
</svg>
