<?xml version="1.0" encoding="UTF-8"?>
<svg id="Designs" xmlns="http://www.w3.org/2000/svg" viewBox="0 0 494.1 600">
  <defs>
    <style>
      .cls-1 {
        fill: #fff;
        stroke-width: 0px;
      }
    </style>
  </defs>
  <path class="cls-1" d="M149.36,73.45h-.02c.02.39.02.78.02,1.17v-1.17Z"/>
  <path class="cls-1" d="M482.93,486.11h0s-.26-.42-.26-.42l-.26-.42-.13-.2-64.36-100.75c-.06-.1-.12-.19-.18-.29,0,0,0,0-.02-.02-.05-.09-.11-.17-.17-.26-.18-.28-.37-.56-.56-.85-.18-.28-.37-.55-.56-.82-.34-.51-.68-1.01-1.03-1.51-.07-.09-.14-.19-.2-.28-.04-.06-.08-.11-.12-.17-.45-.63-.91-1.25-1.37-1.86-.21-.28-.42-.56-.64-.83-.07-.08-.13-.17-.2-.26-.27-.36-.54-.7-.82-1.04-.16-.2-.32-.4-.48-.59-.05-.07-.11-.13-.16-.2-.26-.32-.53-.64-.79-.96-.17-.2-.35-.4-.53-.6-.38-.45-.77-.89-1.16-1.33-.13-.15-.26-.3-.39-.45-.28-.32-.57-.63-.86-.93-.75-.8-1.5-1.59-2.28-2.37-.01-.01-.02-.02-.03-.04-.34-.34-.68-.67-1.03-1.01-.12-.12-.25-.23-.38-.35-.51-.49-1.03-.98-1.56-1.46-.31-.28-.61-.56-.92-.84-.54-.48-1.09-.95-1.64-1.41-.19-.16-.37-.33-.56-.49-.13-.11-.27-.22-.41-.34-.1-.08-.2-.16-.3-.24-.07-.05-.13-.11-.2-.16-.29-.23-.57-.46-.85-.69-.33-.26-.65-.51-.98-.76-.03-.02-.06-.04-.08-.06-.85-.66-1.72-1.3-2.6-1.92-.24-.17-.49-.34-.73-.51-.63-.44-1.27-.88-1.92-1.31-.08-.05-.15-.11-.23-.16-.28-.19-.57-.37-.86-.55-.32-.2-.64-.4-.95-.6-.04-.02-.07-.04-.11-.07-.18-.11-.35-.22-.53-.32-.17-.1-.33-.21-.5-.3-.58-.35-1.16-.69-1.74-1.02-.03-.02-.06-.04-.09-.05-.63-.36-1.26-.71-1.9-1.05-.2-.11-.39-.21-.59-.31-.1-.06-.21-.11-.31-.17-.09-.05-.18-.09-.27-.14-.31-.17-.63-.33-.95-.48-.45-.23-.91-.46-1.37-.68-.45-.22-.92-.44-1.38-.65-.27-.12-.54-.24-.81-.37-.31-.14-.63-.28-.94-.42-.82-.36-1.64-.71-2.46-1.04-.48-.19-.95-.38-1.43-.56-.35-.14-.7-.26-1.04-.39-.08-.03-.17-.06-.26-.09-.11-.04-.22-.08-.33-.12-.13-.05-.27-.1-.4-.14-.18-.07-.36-.13-.54-.2-.39-.13-.76-.26-1.15-.39-.12-.04-.25-.08-.37-.12-.15-.05-.3-.1-.46-.15-.13-.04-.26-.09-.39-.13-.28-.09-.56-.16-.84-.25-.72-.22-1.43-.44-2.16-.64-.05-.01-.1-.03-.15-.04-.37-.11-.74-.21-1.12-.31-.31-.08-.62-.16-.94-.24-.12-.03-.23-.06-.35-.09-.23-.06-.46-.12-.69-.17-.26-.06-.54-.13-.81-.19-.27-.06-.54-.12-.81-.17-.33-.07-.65-.14-.98-.21-.18-.04-.37-.08-.55-.12-.56-.11-1.12-.22-1.68-.32-.23-.04-.46-.09-.69-.13-.41-.07-.83-.15-1.25-.21-.32-.05-.64-.09-.96-.14-.4-.06-.8-.12-1.19-.17-.23-.03-.46-.07-.69-.1-.41-.05-.81-.1-1.22-.14-.12-.01-.25-.03-.38-.04-.22-.02-.45-.05-.67-.07-.03,0-.06,0-.09,0-.3-.04-.59-.06-.89-.09-.4-.04-.8-.07-1.21-.1-.11,0-.23-.02-.35-.02-.2-.02-.4-.03-.6-.04-.07,0-.14-.01-.22-.02-.37-.03-.75-.05-1.13-.07-.26-.01-.52-.02-.78-.03-.49-.02-.99-.04-1.49-.05-.2,0-.41-.02-.61-.02-.65-.02-1.3-.02-1.96-.02h-66.6c-1.26-4.84-1.93-9.92-1.93-15.15,0-16.65,6.79-31.71,17.72-42.57l165.13-155.17c14.68-13.62,23.87-33.08,23.87-54.69C479.61,33.41,446.2,0,404.99,0,385.06,0,366.95,7.82,353.55,20.57l-.17.17-204.1,191.76-.04-137.91c0-.39,0-.78-.01-1.17C148.58,32.74,115.4-.02,74.58,0,33.76.02.61,32.82.02,73.49c-.02.39-.02.78-.02,1.17l.08,135.18c1.26,33.55,20.47,62.51,48.3,77.56.05.02.1.05.14.08,4.57,2.47,9.37,4.56,14.36,6.22,9.19,3.08,19.04,4.74,29.26,4.74,2.92,0,5.82-.14,8.67-.41.02,0,.04,0,.07,0l.13,44.17h-28.68v.05C32.62,343.51.74,375.79.14,415.66c-.02.39-.02.78-.02,1.17l.12,108.59c.02,41.21,33.45,74.6,74.66,74.58,41.22-.02,74.61-33.45,74.58-74.66l-.05-134.73h95.42l111.32,174.27.86,1.35.14.23c13.35,20.21,36.27,33.55,62.31,33.55,41.21,0,74.62-33.41,74.62-74.62,0-14.41-4.09-27.87-11.17-39.27ZM100.78,249.03c-2.83.58-5.76.88-8.76.88-22.91,0-41.71-17.65-43.55-40.09v-3.75l-.04-80.83-.03-50.61c0-14.48,11.72-26.23,26.2-26.23,14.48,0,26.23,11.72,26.23,26.2l.02,39.95v134.45s-.05.01-.08.02ZM101.08,525.37c0,14.48-11.72,26.23-26.21,26.23-14.48,0-26.22-11.73-26.23-26.21l-.11-86.98h-.01v-21.59c0-14.48,11.74-26.22,26.21-26.22h26.29l.05,134.76ZM149.41,342.2l-.03-63.72,66.2-61.84-.12-.13,120.66-113.14,50.58-47.53c4.72-4.59,11.18-7.43,18.29-7.43,14.48,0,26.22,11.74,26.22,26.22,0,7.7-3.32,14.63-8.61,19.42l-50.58,47.53-111.79,105.05c-.07.06-.14.12-.2.19l-2.05,1.93c-10.17,9.78-18.44,21.51-24.21,34.61-5.9,13.4-9.18,28.22-9.18,43.8,0,5.1.36,10.13,1.04,15.05h-76.22ZM419.48,551.6c-9.05,0-17.03-4.59-21.74-11.56l-.07-.11-.61-.95-.02-.03-15.88-24.87-21.38-33.46-4.57-7.15-.23-.35h0s-23.79-37.24-23.79-37.24l-28.91-45.27h38.86c15.07,0,28.32,7.83,35.9,19.65l26.92,42.12,16.09,25.2,21.46,33.58.13.2c2.57,4.06,4.06,8.86,4.06,14.01,0,14.48-11.74,26.22-26.22,26.22Z"/>
</svg>